<svg version="1.1" width="81" height="127" viewBox="1 -1 81 127" xmlns="http://www.w3.org/2000/svg" xmlns:xlink="http://www.w3.org/1999/xlink">
  <!-- Exported by Scratch - http://scratch.mit.edu/ -->
  <g id="ID0.179924001917243" transform="matrix(0.8573749661445618, 0, 0, 0.8573749661445618, -0.05, 0)">
    <path id="ID0.8950433996506035" fill="#FFFFFF" stroke="#000000" stroke-width="1" stroke-linecap="round" d="M 80.400 254.600 C 84.156 254.154 88.716 257.938 89.750 261.250 C 91.954 268.141 92.277 275.901 90.250 283 C 89.600 285.277 85.603 284.516 83.250 284.250 C 80.365 283.919 76.328 284.110 75.500 281.500 C 73.651 275.670 75.450 269.360 76.750 263.500 C 77.463 260.301 77.687 255.284 80.400 254.600 Z " transform="matrix(1.4378383159637451, -0.3430267870426178, 0.45780909061431885, 1.641945719718933, -179.35, -374.7)"/>
    <path id="ID0.8537395023740828" fill="#FFFFFF" stroke="#000000" stroke-width="2" stroke-linecap="round" d="M 153.500 66.100 C 156.149 66.389 158.047 69.624 160.750 69.500 C 163.219 69.530 164.735 66.430 167.250 65.850 C 170.012 65.216 172.991 65.310 175.750 66.300 C 179.099 67.508 183.626 68.796 184.500 72.450 C 187.422 85.897 184.718 100.093 185.600 113.850 C 185.775 117.304 187.156 118.760 187.500 121.300 C 187.821 123.676 187.546 124.358 187.500 128.500 C 187.140 138.578 186.540 148.679 186 158.750 C 185.432 169.424 185.787 179.622 184 189.600 C 183.565 192.400 182.210 189.333 180.750 188.950 C 175.501 187.673 170.116 186.535 164.750 186 C 156.036 185.131 147.234 185.064 138.500 184.400 C 136.317 184.234 135.538 186.312 135.350 184.200 C 134.600 175.751 135.703 167.280 136.500 158.750 C 137.753 145.335 140.751 132.050 141.500 118.600 C 142.047 108.841 140.149 98.598 141.500 88.750 C 142.469 81.574 144.381 74.603 147.500 68.350 C 148.683 66.482 151.633 65.905 153.500 66.100 Z " transform="matrix(-1, 0, 0, 0.9027063250541687, 206.35, -47.75)"/>
    <g id="ID0.08513205265626311">
      <path id="ID0.8950433996506035" fill="#FFFFFF" stroke="#000000" stroke-width="1" stroke-linecap="round" d="M 83 255.750 C 85.817 255.186 89.068 258.382 89.750 261.250 C 91.682 268.209 92.277 275.901 90.250 283 C 89.600 285.277 85.603 284.516 83.250 284.250 C 80.365 283.919 76.328 284.110 75.500 281.500 C 73.651 275.670 75.105 269.276 76.750 263.500 C 77.697 260.148 79.753 256.400 83 255.750 Z " transform="matrix(1.4461100101470947, 0.3062877655029297, -0.29005545377731323, 1.6797150373458862, -24.45, -438.45)"/>
    </g>
    <g id="ID0.03982070926576853">
      <path id="ID0.9186757141724229" fill="#FFFFFF" stroke="#000000" stroke-width="1" stroke-linecap="round" d="M 91.200 106.700 L 81.800 96.800 L 92.800 87.800 L 93 82.800 L 98.650 92.750 L 91.400 106.500 Z " transform="matrix(-1, 0, 0, 1, 127.25, -81)"/>
      <path id="ID0.9186757141724229" fill="#FFFFFF" stroke="#000000" stroke-width="1" stroke-linecap="round" d="M 90.200 104.450 L 81.800 96.800 L 85.900 85.750 L 92.950 90.200 L 94 93.250 L 90.200 104.450 Z " transform="matrix(0.8152173757553101, 0, 0, 0.8152173757553101, -21.15, -63.15)"/>
    </g>
    <path id="ID0.14342549396678805" fill="none" stroke="#000000" stroke-width="1" stroke-linecap="round" d="M 124.500 101 L 119 200 " transform="matrix(-1, 0, 0, 1.0319839715957642, 169.85, -87.7)"/>
    <path id="ID0.5860561807639897" fill="none" stroke="#000000" stroke-width="1" d="M 127.750 106 C 128.095 106 128.407 106.140 128.634 106.366 C 128.860 106.593 129 106.905 129 107.250 C 129 107.595 128.860 107.907 128.634 108.134 C 128.407 108.360 128.095 108.500 127.750 108.500 C 127.405 108.500 127.093 108.360 126.866 108.134 C 126.640 107.907 126.500 107.595 126.500 107.250 C 126.500 106.905 126.640 106.593 126.866 106.366 C 127.093 106.140 127.405 106 127.750 106 Z " transform="matrix(-1, 0, 0, 1, 170.35, -84.5)"/>
    <path id="ID0.5860561807639897" fill="none" stroke="#000000" stroke-width="1" d="M 127.750 106 C 128.095 106 128.407 106.140 128.634 106.366 C 128.860 106.593 129 106.905 129 107.250 C 129 107.595 128.860 107.907 128.634 108.134 C 128.407 108.360 128.095 108.500 127.750 108.500 C 127.405 108.500 127.093 108.360 126.866 108.134 C 126.640 107.907 126.500 107.595 126.500 107.250 C 126.500 106.905 126.640 106.593 126.866 106.366 C 127.093 106.140 127.405 106 127.750 106 Z " transform="matrix(-1, 0, 0, 1, 171.35, -69)"/>
    <path id="ID0.5860561807639897" fill="none" stroke="#000000" stroke-width="1" d="M 127.750 106 C 128.095 106 128.407 106.140 128.634 106.366 C 128.860 106.593 129 106.905 129 107.250 C 129 107.595 128.860 107.907 128.634 108.134 C 128.407 108.360 128.095 108.500 127.750 108.500 C 127.405 108.500 127.093 108.360 126.866 108.134 C 126.640 107.907 126.500 107.595 126.500 107.250 C 126.500 106.905 126.640 106.593 126.866 106.366 C 127.093 106.140 127.405 106 127.750 106 Z " transform="matrix(-1, 0, 0, 1, 171.85, -50)"/>
    <path id="ID0.5860561807639897" fill="none" stroke="#000000" stroke-width="1" d="M 127.750 106 C 128.095 106 128.407 106.140 128.634 106.366 C 128.860 106.593 129 106.905 129 107.250 C 129 107.595 128.860 107.907 128.634 108.134 C 128.407 108.360 128.095 108.500 127.750 108.500 C 127.405 108.500 127.093 108.360 126.866 108.134 C 126.640 107.907 126.500 107.595 126.500 107.250 C 126.500 106.905 126.640 106.593 126.866 106.366 C 127.093 106.140 127.405 106 127.750 106 Z " transform="matrix(-1, 0, 0, 1, 173.1, -29.25)"/>
    <path id="ID0.5860561807639897" fill="none" stroke="#000000" stroke-width="1" d="M 127.750 106 C 128.095 106 128.407 106.140 128.634 106.366 C 128.860 106.593 129 106.905 129 107.250 C 129 107.595 128.860 107.907 128.634 108.134 C 128.407 108.360 128.095 108.500 127.750 108.500 C 127.405 108.500 127.093 108.360 126.866 108.134 C 126.640 107.907 126.500 107.595 126.500 107.250 C 126.500 106.905 126.640 106.593 126.866 106.366 C 127.093 106.140 127.405 106 127.750 106 Z " transform="matrix(-1, 0, 0, 1, 174.35, -7.5)"/>
  </g>
</svg>